<svg xmlns="http://www.w3.org/2000/svg" xmlns:xlink="http://www.w3.org/1999/xlink" width="649.306" height="547.342" viewBox="0 0 649.306 547.342">
  <defs>
    <clipPath id="clip-path">
      <path id="Path_7168" data-name="Path 7168" d="M255.225,153.254c17.174,15.573,43.013,43.952,55.964,86.284,33.188,108.478-50.487,203.214-56.514,209.824L107.832,478.786l.55-296.108Z" transform="translate(-107.832 -153.254)" fill="none"/>
    </clipPath>
    <filter id="Rectangle_59" x="258.09" y="1272" width="203" height="67" filterUnits="userSpaceOnUse">
      <feOffset dy="3" input="SourceAlpha"/>
      <feGaussianBlur stdDeviation="5" result="blur"/>
      <feFlood flood-opacity="0.059"/>
      <feComposite operator="in" in2="blur"/>
      <feComposite in="SourceGraphic"/>
    </filter>
    <clipPath id="clip-path-2">
      <path id="Path_7211" data-name="Path 7211" d="M303.719,121.613c-12.676,15.934-50.077,67.117-51.7,142.591-1.774,82.327,40.206,138.471,52.253,153.518l146.843,29.424-.55-296.108Z" transform="translate(-251.962 -121.613)" fill="none"/>
    </clipPath>
  </defs>
  <g id="video-calling-illustration" transform="translate(-23.177 -34.389)">
    <path id="Path_7125" data-name="Path 7125" d="M88.21,414.961c-47.829-1-67.918,27.411,17.409,25.518,43.661.946,27.915-12.727,27.915-12.727s162-26.219,168.889-44.151-27.411-12.737-27.411-12.737Z" transform="translate(10.005 141.163)" fill="#f2f6ff"/>
    <path id="Path_7126" data-name="Path 7126" d="M289.656,345.382c-1.714.1-29.539,4.528-8.49,11.958s100.862,24.786,100.862,24.786-12.076,31.523,4.125,35.372,44.658-12.984,47.757-8.173,20.839,13.353,28.377,12.808,26.136-.79,26.136-11.707,21.194-32.782-37.9-46.314C428.159,356.249,314.974,343.986,289.656,345.382Z" transform="translate(105.166 130.698)" fill="#f2f6ff"/>
    <path id="Path_7127" data-name="Path 7127" d="M23.177,344.583s37.006,9.724,300.091,8.066,349.215-8.066,349.215-8.066C579.726,308.38,23.177,344.583,23.177,344.583Z" transform="translate(0 123.644)" fill="#eaeff2"/>
    <path id="Path_7128" data-name="Path 7128" d="M49.47,456.33C19.87,420.3,59.462,356.246,80.5,340.069c13.223-10.17,19.357-26.269,15.49-41.963-11.119-45.126,10.407-75.607,32.489-87.933,13.241-7.392,21.55-20.57,21.819-35.1,1.058-57.3,45.435-95.16,90.481-92.834a43.661,43.661,0,0,0,34.578-13.893C317.048,22.117,431.339,20.367,460.92,80.021a43.462,43.462,0,0,0,42.034,23.637c44.366-3.213,72.867,43.588,69.859,86.675-1.484,21.248,14.2,39.852,36.4,43.466,55.662,9.061,54.892,64.264,30.272,102.571-10.395,16.17-7.389,36.647,6.835,49.96a38.313,38.313,0,0,1,10.5,16.465c8.3,25.942-13.1,51.957-41.774,51.92C284.07,454.3,153.79,446.1,111.748,442.4,100,441.372,56.707,465.141,49.47,456.33Z" transform="translate(6.597)" fill="#f2f6ff"/>
    <path id="Path_7129" data-name="Path 7129" d="M238.746,155.982h73.868s-6.8-25.342-23.813-8.991S255.755,100.394,238.746,155.982Z" transform="translate(90.627 41.267)" fill="#fff"/>
    <path id="Path_7130" data-name="Path 7130" d="M23.177,370.806s12.132-57.018,52.477-30.3C99.506,356.3,97.9,289.365,127.478,292.946c22.055,2.672,23.15-23.457,47.3-26.827V370.806Z" transform="translate(0 97.421)" fill="#e0ecfe"/>
    <path id="Path_7131" data-name="Path 7131" d="M605.614,389.229s-21.2-114.911-133.873-72.312C405.128,342.1,362.132,240.677,310.1,277.742c-87.743,62.5-60.414-50.069-127.864-55.444V389.229Z" transform="translate(66.868 78.998)" fill="#cfdbfb"/>
    <g id="Group_5495" data-name="Group 5495" transform="translate(117.832 164.411)">
      <path id="Union_2" data-name="Union 2" d="M15644.373,21141.682l2.073,1.154A8.406,8.406,0,0,1,15644.373,21141.682Zm-9.712-5.4c-3.7-1.416-6.234-5.428-6.225-10.654l.621-334.3c.011-7.334,5.02-14.273,11.19-15.5l11.785,6.553c-6.171,1.236-11.18,8.176-11.2,15.5l-11.779-6.553,11.779,6.559-.62,334.3c-.009,4.178,1.614,7.58,4.156,9.5Zm5.587-360.457,152.048-29.721,11.785,5.811-152.048,30.463Zm163.833-23.91-11.785-5.811a9.5,9.5,0,0,1,5.285.744c3,1.314,11.408,5.428,11.408,5.428A8.791,8.791,0,0,0,15804.081,20751.91Z" transform="translate(-15628.435 -20745.979)" fill="#fc5e5e" stroke="rgba(0,0,0,0)" stroke-width="1"/>
      <path id="Path_7137" data-name="Path 7137" d="M261.973,130.158c6.162-1.236,11.147,3.7,11.133,11.031l-.621,334.3c-.013,7.319-5.021,14.258-11.183,15.492L109.255,521.451c-6.17,1.236-11.157-3.7-11.143-11.021l.621-334.3c.014-7.331,5.023-14.269,11.193-15.505Z" transform="translate(-86.328 -124.228)" fill="#fd9e9e"/>
      <path id="Path_7138" data-name="Path 7138" d="M255.225,153.254l-.55,296.109L107.832,478.787l.55-296.109Z" transform="translate(-82.242 -114.439)" fill="#fff"/>
      <g id="Group_5494" data-name="Group 5494" transform="translate(25.59 38.815)">
        <g id="Group_5493" data-name="Group 5493" clip-path="url(#clip-path)">
          <path id="Path_7139" data-name="Path 7139" d="M103.252,301.507c26.285,12.7,32.928-12.3,25.346-31.044s26.226,2.084,24.472-36.742,36.492,1.207,31.1-28.277S246.214,193.1,220.545,154.7c-68.282,11.788-119.85,17.521-119.85,17.521Z" transform="translate(-110.832 -152.646)" fill="#ffdfdf"/>
          <g id="Group_5492" data-name="Group 5492" transform="translate(51.167 44.688)">
            <path id="Path_7140" data-name="Path 7140" d="M197.639,192.3s6.345,9.859.614,19.033C189.062,209.2,191.066,193.191,197.639,192.3Z" transform="translate(-123.605 -181.524)" fill="#5a4051"/>
            <path id="Path_7141" data-name="Path 7141" d="M231.841,224.451c.338-.382,6-5.111,7.724-2.695.858,1.2-4.052,4.126-4.052,4.126s7.646-2.827,7.524-1.155c1.584,5.906,2.6,12.885-5.459,11.794l-5.439,1.3S228.358,228.387,231.841,224.451Z" transform="translate(-107.485 -169.43)" fill="#f8cba3"/>
            <path id="Path_7142" data-name="Path 7142" d="M213.878,236.992l16.069,21.822,17.039-30.079,6.4,1.983s-8.6,42.362-21.938,44.437S193.4,236.11,193.4,236.11Z" transform="translate(-123.026 -166.209)" fill="#f8cba3"/>
            <path id="Path_7143" data-name="Path 7143" d="M162.122,309.3c1.7-.676,1.278-3.131,2.957-3.447l-3.158-38.223,10.207-11.789c-5.1-5.535-5.247-9.321-12.095-12.88-5.709,8.98-12.72,16.676-14.044,19.866-2.426,5.841,8.432,34.242,13.741,47.442C160.527,309.944,161.322,309.619,162.122,309.3Z" transform="translate(-143.104 -160.228)" fill="#f8cba3"/>
            <path id="Path_7144" data-name="Path 7144" d="M181.316,391.859a10.036,10.036,0,0,0,7.025,1.393c3.006-.953,2.615-5.246,5.271-6.113l.514,1.858c1.075,3.88,21.011,13.548,21.011,13.548l-.793,5.118-34.7-5.115Z" transform="translate(-128.81 -99.614)" fill="#4b4be3"/>
            <path id="Path_7145" data-name="Path 7145" d="M187.845,395.774a10.036,10.036,0,0,1-7.025-1.393l2-12.681,7.937-.56,2.359,8.521C190.46,390.529,190.851,394.821,187.845,395.774Z" transform="translate(-128.315 -102.137)" fill="#f8cba3"/>
            <path id="Path_7146" data-name="Path 7146" d="M175.857,288.285l5.405,69.38-2.5,72.887,19.8.335,8.548-67.358-1.4-82.127-26.3-4.072Z" transform="translate(-130.401 -145.78)" fill="#fc5e5e"/>
            <path id="Path_7147" data-name="Path 7147" d="M147.5,384.59a10.033,10.033,0,0,0,6.642,2.683c3.132-.375,3.548-4.665,6.321-5.021l.159,1.92c.331,4.014,18.107,17.235,18.107,17.235l-1.734,4.879-33.137-11.508Z" transform="translate(-143.855 -101.669)" fill="#4b4be3"/>
            <path id="Path_7148" data-name="Path 7148" d="M153.061,390.158a10.033,10.033,0,0,1-6.642-2.683l4.335-12.083,7.9.933.726,8.812C156.609,385.493,156.193,389.783,153.061,390.158Z" transform="translate(-142.777 -104.553)" fill="#f8cba3"/>
            <path id="Path_7149" data-name="Path 7149" d="M166,317.909l-5.383,34.424-16.079,71.135,19.389,4.028,20.984-64.573,18.21-79.337L179.9,270.473l-4.8,12.787A176.148,176.148,0,0,0,166,317.909Z" transform="translate(-143.57 -148.662)" fill="#fc5e5e"/>
            <path id="Path_7150" data-name="Path 7150" d="M156.065,285.053s6.077-5.983,10.1.473l4.221,6.38a1.789,1.789,0,0,1-1.088.923c-.929.179-1.7-.939-3.274-2.395a24.437,24.437,0,0,0-2.939-2.325,91.1,91.1,0,0,1,5.754,10.321c.158.351,2.041,5.314-.193,3.949a2.319,2.319,0,0,1-.626-.656q-3.038-4.17-6.089-8.329,6.089,10.551,4.7,11.592c-.741.555-1.491-.409-1.829-.928l-5.822-8.95c.446,1.034,3.849,8.052,2.452,8.859-1.054.608-1.913-2.075-2.165-2.658l-2.5-5.778c.385,1.43.822,2.842,1.121,4.3a9.414,9.414,0,0,1,.308,2.487c-.071.994-.591,1.324-1.2.261a27.814,27.814,0,0,1-3.016-8.224c-.447-2.155-.608-9.832-.615-13.135" transform="translate(-139.858 -144.145)" fill="#f8cba3"/>
            <path id="Path_7151" data-name="Path 7151" d="M214.47,224.444c-1.825-1.389-12.956-7.816-27.9-4.6-9.032,1.943-14.174,3.579-16.545,6.031.055,6.773-.523,17.531-1.223,24.9-1.257,13.248,1.483,33.3-3.724,53.157,15.342,15.819,39.708,9.369,48.278,6.623C213.734,270.927,229.033,233.741,214.47,224.444Z" transform="translate(-134.931 -170.321)" fill="#4270ed"/>
            <path id="Path_7152" data-name="Path 7152" d="M174.753,223.825s13.132,13.74,3.861,31.853l-11,11.395c-4.233-6.221-7.521-12.588-13.777-17.11C163.61,238.658,174.753,223.825,174.753,223.825Z" transform="translate(-139.656 -168.273)" fill="#134de9"/>
            <g id="Group_5471" data-name="Group 5471" transform="translate(35.097 55.552)">
              <g id="Group_5470" data-name="Group 5470">
                <path id="Path_7153" data-name="Path 7153" d="M172.425,255.678l.669-1.31a26.483,26.483,0,0,0,1.97-6.072c.128-.9.288-1.838.342-2.825a24.724,24.724,0,0,0,.055-3.037,26.443,26.443,0,0,0-.352-3.118c-.112-1.048-.42-2.061-.629-3.077-.327-.984-.571-1.983-.956-2.9s-.682-1.827-1.1-2.638c-.4-.818-.724-1.621-1.141-2.3l-1.05-1.908c-.347-.548-.649-1.027-.9-1.422l-.773-1.25.9,1.16,1.021,1.349,1.19,1.845c.456.666.828,1.459,1.276,2.268a23.459,23.459,0,0,1,1.222,2.643c.409.926.678,1.942,1.028,2.946a31.938,31.938,0,0,1,.7,3.15,27.146,27.146,0,0,1,.308,3.216,25.432,25.432,0,0,1-.111,3.126,21.643,21.643,0,0,1-.464,2.886,25.694,25.694,0,0,1-.754,2.5,18.11,18.11,0,0,1-.851,2.033c-.29.588-.584,1.081-.8,1.5Z" transform="translate(-168.564 -223.825)" fill="#401a4c"/>
              </g>
            </g>
            <g id="Group_5473" data-name="Group 5473" transform="translate(17.816 101.675)">
              <g id="Group_5472" data-name="Group 5472">
                <path id="Path_7154" data-name="Path 7154" d="M157.4,262.026a6.3,6.3,0,0,1-.366-.859,11.424,11.424,0,0,1-.634-3.939,6.163,6.163,0,0,1,.081-.93,6.194,6.194,0,0,1,.366.859,11.436,11.436,0,0,1,.49,1.94,11.659,11.659,0,0,1,.142,2A6.3,6.3,0,0,1,157.4,262.026Z" transform="translate(-156.398 -256.297)" fill="#401a4c"/>
              </g>
            </g>
            <g id="Group_5475" data-name="Group 5475" transform="translate(47.577 168.595)">
              <g id="Group_5474" data-name="Group 5474">
                <path id="Path_7155" data-name="Path 7155" d="M181.591,303.41s-.139,1.185-.442,2.937-.751,4.084-1.287,6.392-1.138,4.6-1.629,6.312-.883,2.835-.883,2.835.139-1.183.442-2.937.753-4.082,1.287-6.39,1.141-4.6,1.631-6.312S181.591,303.41,181.591,303.41Z" transform="translate(-177.35 -303.41)" fill="#401a4c"/>
              </g>
            </g>
            <g id="Group_5477" data-name="Group 5477" transform="translate(50.023 164.404)">
              <g id="Group_5476" data-name="Group 5476">
                <path id="Path_7156" data-name="Path 7156" d="M179.072,303.084l2.1-.341c1.256-.2,2.92-.467,4.572-.776s3.294-.651,4.521-.964c.608-.169,1.131-.277,1.483-.395l.57-.149-.51.294a13.057,13.057,0,0,1-1.4.68,21.339,21.339,0,0,1-2.071.74,25.129,25.129,0,0,1-2.45.587c-.844.146-1.692.27-2.491.337s-1.55.082-2.19.1A16.458,16.458,0,0,1,179.072,303.084Z" transform="translate(-179.072 -300.459)" fill="#401a4c"/>
              </g>
            </g>
            <path id="Path_7157" data-name="Path 7157" d="M197.092,223.228c1.18.128,2.6-1.665,4.69-.707,5.758,2.629,8.264,9.807,13.005,16.768a92.871,92.871,0,0,0,9.059,11.271l-14.991,18.37L192.3,249.508Z" transform="translate(-123.486 -168.94)" fill="#4270ed"/>
            <g id="Group_5479" data-name="Group 5479" transform="translate(82.208 61.047)">
              <g id="Group_5478" data-name="Group 5478">
                <path id="Path_7158" data-name="Path 7158" d="M203.445,227.694a12.08,12.08,0,0,1,.349,1.724,45.977,45.977,0,0,1,.4,4.623c.082,1.919.116,4.159.072,6.558-.064,2.4-.17,4.954-.311,7.507-.185,2.551-.392,5.1-.616,7.484-.206,2.388-.516,4.6-.72,6.51-.491,3.8-.891,6.327-.891,6.327s.142-2.552.439-6.371c.253-3.822.7-8.907.986-14,.176-2.544.318-5.091.416-7.478.075-2.388.19-4.616.173-6.527,0-1.91-.011-3.506-.105-4.616A15.307,15.307,0,0,0,203.445,227.694Z" transform="translate(-201.731 -227.694)" fill="#401a4c"/>
              </g>
            </g>
            <path id="Path_7159" data-name="Path 7159" d="M199.649,236.518l-1.476-8.16c7.993-1.361,10.586-7.126,7.213-24.583-4.1-21.237-25.738-12.5-27.357-4.731s4.514,25.057,4.514,25.057l-1.339,9.331S187.516,244.189,199.649,236.518Z" transform="translate(-129.603 -182.29)" fill="#f8cba3"/>
            <path id="Path_7160" data-name="Path 7160" d="M184.257,226.526c1.717-2.517-3.352-14.278-.045-15.066,2.334-.555,3.852,2.041,4.544,3.618a1.641,1.641,0,0,0,3.136-.733,19.678,19.678,0,0,0-.328-5.578,15.158,15.158,0,0,0-3.845-7.305,21.531,21.531,0,0,0,21.268-7.126c-5.817-8.818-15.985-11.527-23.438-8.321-3.567,1.533-7.777,5.21-8.7,12.328-5.281,3.554-3.442,18.46,1.651,24.151A15.875,15.875,0,0,0,184.257,226.526Z" transform="translate(-131.317 -184.715)" fill="#5a4051"/>
            <g id="Group_5481" data-name="Group 5481" transform="translate(60.005 39.392)">
              <g id="Group_5480" data-name="Group 5480">
                <path id="Path_7161" data-name="Path 7161" d="M186.1,212.448s.386.624,1.007,1.5a18.623,18.623,0,0,0,2.55,2.9c.271.213.523.456.805.643a8.238,8.238,0,0,0,.835.54,7.186,7.186,0,0,0,.831.425,4.659,4.659,0,0,0,.788.3c.254.06.487.134.7.2l.557.085.5.088s-.178.033-.5.068a4.5,4.5,0,0,1-1.345,0,5.043,5.043,0,0,1-.889-.185,4.38,4.38,0,0,1-.96-.348,8.084,8.084,0,0,1-1.849-1.212,10.389,10.389,0,0,1-1.45-1.642,11.816,11.816,0,0,1-.954-1.633A8.522,8.522,0,0,1,186.1,212.448Z" transform="translate(-186.1 -212.448)" fill="#401a4c"/>
              </g>
            </g>
            <g id="Group_5483" data-name="Group 5483" transform="translate(60.377 9.224)">
              <g id="Group_5482" data-name="Group 5482">
                <path id="Path_7162" data-name="Path 7162" d="M197.124,192.817s-.7-.186-1.743-.4a19.755,19.755,0,0,0-3.807-.4c-.341.02-.687.017-1.021.06a9.338,9.338,0,0,0-.973.152,7.845,7.845,0,0,0-.9.232,4.72,4.72,0,0,0-.78.3c-.227.121-.449.219-.648.307l-.469.3-.426.259s.111-.141.324-.378a4.543,4.543,0,0,1,1-.883,5.268,5.268,0,0,1,.783-.446,4.56,4.56,0,0,1,.937-.372,8.285,8.285,0,0,1,2.163-.331,10.542,10.542,0,0,1,2.153.232,12.046,12.046,0,0,1,1.791.544A8.556,8.556,0,0,1,197.124,192.817Z" transform="translate(-186.362 -191.209)" fill="#401a4c"/>
              </g>
            </g>
            <g id="Group_5485" data-name="Group 5485" transform="translate(53.426 7.424)">
              <g id="Group_5484" data-name="Group 5484">
                <path id="Path_7163" data-name="Path 7163" d="M189.523,190.391s-.642-.011-1.564.061a10.024,10.024,0,0,0-3.2.753,5.55,5.55,0,0,0-1.446.906,5.05,5.05,0,0,0-1.03,1.115c-.118.193-.27.349-.358.516l-.236.429c-.135.24-.224.378-.224.378s.02-.156.077-.43a4.1,4.1,0,0,1,.348-1.118,5.193,5.193,0,0,1,.937-1.406,4.988,4.988,0,0,1,1.6-1.124,6.243,6.243,0,0,1,1.875-.49,7.892,7.892,0,0,1,1.662.02A6.032,6.032,0,0,1,189.523,190.391Z" transform="translate(-181.468 -189.942)" fill="#401a4c"/>
              </g>
            </g>
            <path id="Path_7164" data-name="Path 7164" d="M237.818,223.664c10-2.5,23.056.217,3.444,2.564,15.728-.354,15.572,5.3,0,3.23,13.673,1.4,13.956,6.466-.743,3.033,13.046,3.156,7.031,5.011-2.027,2.007" transform="translate(-104.352 -168.759)" fill="#f8cba3"/>
            <g id="Group_5487" data-name="Group 5487" transform="translate(128.029 56.452)">
              <g id="Group_5486" data-name="Group 5486">
                <path id="Path_7165" data-name="Path 7165" d="M233.99,224.459a3.516,3.516,0,0,1,1.148.27,4.377,4.377,0,0,1,1.065.633,3.25,3.25,0,0,1,.893,1.17,3.063,3.063,0,0,1,.219.736,3.656,3.656,0,0,1,.03.733,3.716,3.716,0,0,1-.351,1.2,3.121,3.121,0,0,1-.455.727,3.154,3.154,0,0,1-.2.25s.017-.121.061-.317a7.225,7.225,0,0,0,.163-.8,4.767,4.767,0,0,0,.074-1.08,3.207,3.207,0,0,0-.276-1.128,3.442,3.442,0,0,0-.646-.986,5.917,5.917,0,0,0-.8-.753C234.391,224.713,233.99,224.459,233.99,224.459Z" transform="translate(-233.99 -224.459)" fill="#401a4c"/>
              </g>
            </g>
            <g id="Group_5489" data-name="Group 5489" transform="translate(135.201 55.721)">
              <g id="Group_5488" data-name="Group 5488">
                <path id="Path_7166" data-name="Path 7166" d="M239.983,223.944a7.324,7.324,0,0,1,.618,1.466,11.24,11.24,0,0,1,.361,1.6,10.273,10.273,0,0,1,.087,1.886,8.416,8.416,0,0,1-.328,1.874,4.332,4.332,0,0,1-.311.821,5.7,5.7,0,0,1-.358.7,5.637,5.637,0,0,1-1.011,1.236s.06-.152.176-.4a7.83,7.83,0,0,0,.426-1.031,9.283,9.283,0,0,0,.391-1.494,13.026,13.026,0,0,0,.213-1.749,23.4,23.4,0,0,0-.088-3.346C240.072,224.576,239.983,223.944,239.983,223.944Z" transform="translate(-239.039 -223.944)" fill="#401a4c"/>
              </g>
            </g>
            <g id="Group_5491" data-name="Group 5491" transform="translate(103.974 88.346)">
              <g id="Group_5490" data-name="Group 5490">
                <path id="Path_7167" data-name="Path 7167" d="M222.414,246.913s-.224.636-.643,1.541-1.016,2.088-1.689,3.226-1.409,2.241-1.994,3.048-1.033,1.311-1.033,1.311.223-.636.642-1.541,1.017-2.088,1.69-3.226,1.41-2.24,1.994-3.047S222.414,246.913,222.414,246.913Z" transform="translate(-217.055 -246.913)" fill="#401a4c"/>
              </g>
            </g>
            <g id="Group_102" data-name="Group 102" transform="translate(-440.322 344.476)">
              <g id="Rectangle_55" data-name="Rectangle 55" transform="translate(542 744)" fill="#f6f6f6" stroke="#eee" stroke-width="1">
                <rect width="936" height="222" rx="5" stroke="none"/>
                <rect x="0.5" y="0.5" width="935" height="221" rx="4.5" fill="none"/>
              </g>
              <rect id="Rectangle_60" data-name="Rectangle 60" width="150" height="146" transform="translate(559 777)" fill="#c5a9d4"/>
              <rect id="Rectangle_58" data-name="Rectangle 58" width="150" height="146" transform="translate(709 777)" fill="#fb9301"/>
              <rect id="Rectangle_57" data-name="Rectangle 57" width="150" height="146" transform="translate(859 777)" fill="#f6c254"/>
              <rect id="Rectangle_56" data-name="Rectangle 56" width="150" height="146" transform="translate(1009 777)" fill="#5a4051"/>
              <rect id="Rectangle_61" data-name="Rectangle 61" width="150" height="146" transform="translate(1159 777)" fill="#00cc5d"/>
              <rect id="Rectangle_62" data-name="Rectangle 62" width="150" height="146" transform="translate(1309 777)" fill="#aa73ff"/>
              <g transform="matrix(1, 0, 0, 1, 268.91, -558)" filter="url(#Rectangle_59)">
                <rect id="Rectangle_59-2" data-name="Rectangle 59" width="173" height="37" transform="translate(273.09 1284)" fill="#134de9"/>
              </g>
              <text id="USER_COLOR" data-name="USER COLOR" transform="translate(628.5 750)" fill="#fff" font-size="14" font-family="Lato-Regular, Lato"><tspan x="-42.539" y="0">USER COLOR</tspan></text>
              <text id="_C5A9D4" data-name="#C5A9D4" transform="translate(634 950)" fill="#001c2b" font-size="14" font-family="OpenSans-Semibold, Open Sans" font-weight="600"><tspan x="-30.71" y="0">#C5A9D4</tspan></text>
              <text id="_F6C254" data-name="#F6C254" transform="translate(934 950)" fill="#001c2b" font-size="14" font-family="OpenSans-Semibold, Open Sans" font-weight="600"><tspan x="-28.667" y="0">#F6C254</tspan></text>
              <text id="_00CC5D" data-name="#00CC5D" transform="translate(1234 950)" fill="#001c2b" font-size="14" font-family="OpenSans-Semibold, Open Sans" font-weight="600"><tspan x="-30.519" y="0">#00CC5D</tspan></text>
              <text id="_FB9301" data-name="#FB9301" transform="translate(784 950)" fill="#001c2b" font-size="14" font-family="OpenSans-Semibold, Open Sans" font-weight="600"><tspan x="-28.851" y="0">#FB9301</tspan></text>
              <text id="_5A4051" data-name="#5A4051" transform="translate(1084 950)" fill="#001c2b" font-size="14" font-family="OpenSans-Semibold, Open Sans" font-weight="600"><tspan x="-29.128" y="0">#5A4051</tspan></text>
              <text id="_AA73FF" data-name="#AA73FF" transform="translate(1384 950)" fill="#001c2b" font-size="14" font-family="OpenSans-Semibold, Open Sans" font-weight="600"><tspan x="-29.22" y="0">#AA73FF</tspan></text>
            </g>
          </g>
        </g>
      </g>
      <path id="Path_7169" data-name="Path 7169" d="M166.054,374.137c2.1-.421,3.8,1.265,3.8,3.766s-1.715,4.871-3.816,5.291l-23.883,4.786c-2.106.422-3.808-1.264-3.8-3.765s1.715-4.871,3.82-5.293Z" transform="translate(-54.82 -15.133)" fill="#fc7e7e"/>
      <path id="Path_7170" data-name="Path 7170" d="M159.505,145.655c2.815-.564,5.089,1.688,5.083,5.032s-2.291,6.516-5.106,7.079-5.094-1.693-5.088-5.037S156.69,146.22,159.505,145.655Z" transform="translate(-60.21 -114.71)" fill="#fc7e7e"/>
    </g>
    <g id="Group_5531" data-name="Group 5531" transform="translate(348.145 119.467)">
      <path id="Path_7171" data-name="Path 7171" d="M294.48,95.15c-3.01,1.315-11.409,5.432-11.409,5.432a8.766,8.766,0,0,1,4.908-.366l11.784-5.807A9.481,9.481,0,0,0,294.48,95.15Z" transform="translate(-238.883 -94.286)" fill="#0072a2"/>
      <path id="Path_7172" data-name="Path 7172" d="M397.505,378.775l11.784-6.557c3.7-1.418,6.236-5.427,6.226-10.653l-11.784,6.557C403.741,373.347,401.2,377.357,397.505,378.775Z" transform="translate(-190.774 18.08)" fill="#134de9"/>
      <path id="Path_7173" data-name="Path 7173" d="M438.574,130.645l11.783-6.556L298.31,94.372l-11.784,5.806Z" transform="translate(-237.43 -94.25)" fill="#134de9"/>
      <path id="Path_7174" data-name="Path 7174" d="M402.072,467.067l11.784-6.556-.621-334.3-11.783,6.556Z" transform="translate(-189.115 -80.865)" fill="#134de9"/>
      <path id="Path_7175" data-name="Path 7175" d="M404.764,137.355l11.784-6.557c-.014-7.331-5.023-14.268-11.193-15.505l-11.784,6.557C399.741,123.087,404.75,130.024,404.764,137.355Z" transform="translate(-192.428 -85.454)" fill="#134de9"/>
      <path id="Path_7176" data-name="Path 7176" d="M289.822,98.516c-6.162-1.234-11.147,3.7-11.135,11.031l.622,334.3c.013,7.321,5.021,14.259,11.183,15.494L442.54,489.809c6.17,1.236,11.156-3.7,11.143-11.02l-.621-334.3c-.014-7.331-5.023-14.268-11.193-15.505Z" transform="translate(-240.726 -92.587)" fill="#7194f2"/>
      <path id="Path_7177" data-name="Path 7177" d="M288.4,121.613l.55,296.109,146.844,29.424-.55-296.109Z" transform="translate(-236.643 -82.798)" fill="#cfdbfb"/>
      <g id="Group_5530" data-name="Group 5530" transform="translate(0 38.816)">
        <g id="Group_5529" data-name="Group 5529" clip-path="url(#clip-path-2)">
          <g id="Group_5528" data-name="Group 5528" transform="translate(19.352 79.506)">
            <path id="Path_7178" data-name="Path 7178" d="M315.891,182.8s10.369-6.121,13.644,1.351.261,16.788,10.8,14.9c-6.139,12.591-26.715,13.488-25.107-11.393" transform="translate(-244.753 -176.389)" fill="#5a4051"/>
            <path id="Path_7179" data-name="Path 7179" d="M313.342,182.114s3.062-2.956,5.873,1.1-1.338,7.94-1.338,7.94Z" transform="translate(-245.509 -176.122)" fill="#ff7536"/>
            <path id="Path_7180" data-name="Path 7180" d="M352.424,347.247s-6.395-39.72,13.517-26.42,5.216-51.869,23.925-31.121,9.234-39.858,27-27.546V363.482Z" transform="translate(-229.49 -142.733)" fill="#a0b7f6"/>
            <g id="Group_5509" data-name="Group 5509" transform="translate(0 6.333)">
              <path id="Path_7181" data-name="Path 7181" d="M275.045,229.358l-2.9,3.818s5.169,5.781,12.143,12.294a18.344,18.344,0,0,0,4.957-7.845Z" transform="translate(-262.828 -162.156)" fill="#f8cba3"/>
              <path id="Path_7182" data-name="Path 7182" d="M317.035,215.985l-11.152,39.037-20.231-11.775a18.344,18.344,0,0,1-4.957,7.845c10.039,9.379,23.824,20.275,31.334,17.62,12.724-4.5,15.12-41.063,15.12-41.063Z" transform="translate(-259.234 -167.778)" fill="#4270ed"/>
              <path id="Path_7183" data-name="Path 7183" d="M336.992,381.824a4.058,4.058,0,0,0,.26-.418c-.422-10.654-3.251-24.7-3.251-24.7l8.515,3.023s1.734,11.375,4.348,21C344.255,383.344,340.633,383.286,336.992,381.824Z" transform="translate(-236.823 -108.616)" fill="#f8cba3"/>
              <path id="Path_7184" data-name="Path 7184" d="M327.05,386.2c-1.624-6.373,10.037-7.395,12.93-11.485,3.641,1.462,7.263,1.52,9.872-1.094a11.488,11.488,0,0,0,.972,1.908c3.146,4.787.908,6.433-3.952,7.38C339.2,384.4,327.791,389.106,327.05,386.2Z" transform="translate(-239.811 -101.506)" fill="#401a4c"/>
              <path id="Path_7185" data-name="Path 7185" d="M374.011,377.955a4.243,4.243,0,0,0,.1-.482c-4.133-9.829-11.713-21.985-11.713-21.985l9.035-.159s5.615,10.044,11.44,18.136C381.346,376.83,377.934,378.046,374.011,377.955Z" transform="translate(-224.886 -109.197)" fill="#f8cba3"/>
              <path id="Path_7186" data-name="Path 7186" d="M365.125,387.879c-3.758-5.4,6.8-10.446,8.076-15.292,3.923.091,7.335-1.125,8.861-4.49a11.466,11.466,0,0,0,1.58,1.446c4.625,3.379,3.108,5.706-1.109,8.3C375.878,381.932,366.84,390.341,365.125,387.879Z" transform="translate(-224.077 -103.829)" fill="#401a4c"/>
              <path id="Path_7187" data-name="Path 7187" d="M337.313,241.363s-17.975,46.349,3.554,95.782c4.148,28.118,42.906,81.56,42.906,81.56l11.9-5.771s-9.13-21.705-12.014-30.341c-2.758-8.26-6.339-22.582-13.649-32.165-4.064-5.329-4.562-12.109-4.112-18.795,2.03-30.14,4.988-46.2,2.136-65.327" transform="translate(-238.387 -157.109)" fill="#fc5e5e"/>
              <path id="Path_7188" data-name="Path 7188" d="M334.549,253.584l22.2-11.448s17.291,7.8,14.572,32.1c-2.523,22.539-13.987,35.1-21.121,62.717-1.345,5.21-4.386,4.64-3.643,9.97,2.7,19.352,1.311,36.914,3.381,53.588l2.351,18.948-14.035,1.787-13.8-80.675c1.021-34,3.416-65.281,3.416-65.281s-.653-25.91,2.876-33.434" transform="translate(-240.838 -156.9)" fill="#fc5e5e"/>
              <path id="Path_7189" data-name="Path 7189" d="M345.028,208.643s10.609,36.131,23.905,48.811c-6.072,19.931-27.04,27.864-34.475,25.028-14.615-24.9-15.737-30.929-15.737-30.929-6.416-1.49-13.909-8.248-11.3-19.477a13.4,13.4,0,0,0-.662-6.834,10.35,10.35,0,0,1,4.733-12.2C323,206.549,342.894,197.19,345.028,208.643Z" transform="translate(-248.487 -173.133)" fill="#4270ed"/>
              <path id="Path_7190" data-name="Path 7190" d="M334.394,218.05s-17.8-36.358-30.837-36-12.19,11.11-3.692,24.6c7.639,12.126,15.25,6.622,15.25,6.622l5.973,11.038S331.786,224.171,334.394,218.05Z" transform="translate(-253.808 -182.046)" fill="#f8cba3"/>
              <g id="Group_5496" data-name="Group 5496" transform="translate(85.097 30.212)">
                <path id="Path_7191" data-name="Path 7191" d="M364.31,258.979s-6.949,2.825-2.761,8.45l4.062,5.76a1.5,1.5,0,0,0,1.119-.558c.442-.7-.258-1.737-1-3.548a22.772,22.772,0,0,1-1.043-3.247,89.318,89.318,0,0,0,6.907,8.437c.246.256,3.842,3.588,3.391,1.264a2.2,2.2,0,0,0-.357-.749q-2.569-3.995-5.123-8,7,8.8,8.309,8.032c.7-.409.122-1.371-.21-1.835q-2.866-4-5.729-8c.733.737,5.588,6.057,6.706,5.2.842-.643-1.152-2.317-1.564-2.731l-4.094-4.131c1.085.831,2.139,1.7,3.273,2.467a9.155,9.155,0,0,0,2,1.151c.861.3,1.3-.007.6-.893a27.294,27.294,0,0,0-6-5.436,42.627,42.627,0,0,0-6.812-3.46" transform="translate(-310.904 -180.68)" fill="#f8cba3"/>
                <path id="Path_7192" data-name="Path 7192" d="M366.945,252.308c1.16,7.172,2.038,12.231,2.038,12.231l-6.575.815s-1.345-4.734-3.54-11.281C361.538,253.534,364.23,252.986,366.945,252.308Z" transform="translate(-311.466 -182.719)" fill="#f8cba3"/>
                <path id="Path_7193" data-name="Path 7193" d="M368.283,261.925a113.142,113.142,0,0,1-7.061-28.229l-32.867-15.036s-8.028-12.439,2.821-15.343c31.661,10.413,41.338,16.3,44.213,27.038.436,9.514,3.479,29.527,5.586,42.551-2.716.678-5.408,1.226-8.076,1.766C371.618,270.848,370.048,266.409,368.283,261.925Z" transform="translate(-325.496 -203.316)" fill="#4270ed"/>
              </g>
              <g id="Group_5498" data-name="Group 5498" transform="translate(57.956 22.935)">
                <g id="Group_5497" data-name="Group 5497">
                  <path id="Path_7194" data-name="Path 7194" d="M316.81,198.193a4.372,4.372,0,0,1-.058.655,8.875,8.875,0,0,1-.419,1.69,10.616,10.616,0,0,1-2.915,4.427c-.351.341-.767.605-1.142.906-.395.273-.82.486-1.21.72-.406.206-.822.358-1.206.517a10.942,10.942,0,0,1-1.115.347,9.385,9.385,0,0,1-1.706.32l-.651.071.616-.224a15.854,15.854,0,0,0,1.594-.6,10.622,10.622,0,0,0,1.028-.456l1.1-.6a14.473,14.473,0,0,0,2.156-1.6,13.843,13.843,0,0,0,3.038-4.006A12.57,12.57,0,0,0,316.81,198.193Z" transform="translate(-306.388 -198.193)" fill="#401a4c"/>
                </g>
              </g>
              <g id="Group_5500" data-name="Group 5500" transform="translate(76.374 64.361)">
                <g id="Group_5499" data-name="Group 5499">
                  <path id="Path_7195" data-name="Path 7195" d="M336.43,227.358s-.1.33-.287.908a7.863,7.863,0,0,1-.384,1.024c-.183.384-.362.841-.631,1.294-.291.438-.558.949-.935,1.425a10.194,10.194,0,0,1-1.259,1.436,12.391,12.391,0,0,1-1.579,1.312,11.089,11.089,0,0,1-1.861,1.037,11.243,11.243,0,0,1-2.043.632,9.875,9.875,0,0,1-2.072.122,7.039,7.039,0,0,1-1.908-.334,7.859,7.859,0,0,1-1.571-.713c-.227-.139-.453-.26-.652-.4l-.517-.453a4.57,4.57,0,0,1-.78-.78l-.6-.746.709.634a4.363,4.363,0,0,0,.852.656q.258.17.547.365l.651.32a7.439,7.439,0,0,0,1.517.548,8.255,8.255,0,0,0,.866.135,4.09,4.09,0,0,0,.909.067,9.275,9.275,0,0,0,1.9-.162,10.769,10.769,0,0,0,1.872-.635,10.1,10.1,0,0,0,1.758-.92,11.7,11.7,0,0,0,1.521-1.2,15.641,15.641,0,0,0,1.28-1.294c.4-.426.69-.9,1.007-1.3.285-.42.511-.828.741-1.178a7.589,7.589,0,0,0,.511-.96Z" transform="translate(-319.355 -227.358)" fill="#401a4c"/>
                </g>
              </g>
              <g id="Group_5502" data-name="Group 5502" transform="translate(96.814 125.964)">
                <g id="Group_5501" data-name="Group 5501">
                  <path id="Path_7196" data-name="Path 7196" d="M333.779,270.728s.037,1.067.1,2.936c.094,1.866.226,4.534.386,7.734s.425,6.927.712,10.919c.166,1.994.293,4.058.507,6.148.2,2.092.392,4.217.651,6.335.209,2.124.463,4.241.747,6.322.244,2.085.584,4.123.9,6.1.288,1.98.688,3.869,1.008,5.673.3,1.811.764,3.48,1.1,5.042s.79,2.959,1.128,4.214c.178.625.345,1.212.5,1.753l.531,1.45,1.023,2.754s-.418-.984-1.149-2.706l-.6-1.43-.58-1.733c-.4-1.24-.929-2.622-1.29-4.189-.381-1.558-.895-3.227-1.24-5.035-.369-1.8-.829-3.692-1.122-5.677-.331-1.98-.689-4.023-.953-6.113-.3-2.085-.577-4.207-.8-6.335-.241-2.126-.419-4.258-.6-6.358-.2-2.1-.307-4.166-.456-6.166-.257-4-.375-7.743-.467-10.948s-.074-5.879-.068-7.748Z" transform="translate(-333.745 -270.728)" fill="#401a4c"/>
                </g>
              </g>
              <g id="Group_5504" data-name="Group 5504" transform="translate(59.388 49.352)">
                <g id="Group_5503" data-name="Group 5503">
                  <path id="Path_7197" data-name="Path 7197" d="M312.224,242.917a4.519,4.519,0,0,1-1.06-.567,6.982,6.982,0,0,1-2.152-2.359,8.182,8.182,0,0,1-.817-2,9.549,9.549,0,0,1-.352-2.388,14.172,14.172,0,0,1,.162-2.565c.107-.876.274-1.7.361-2.564a29.241,29.241,0,0,0,.224-5.025,40.731,40.731,0,0,0-.372-4.4,35.99,35.99,0,0,0-.822-4.254,23.247,23.247,0,0,1,1.27,4.175,30.7,30.7,0,0,1,.622,4.447c.051.822.058,1.675.053,2.541-.031.864-.074,1.744-.179,2.631-.1.862-.3,1.744-.415,2.564a13.324,13.324,0,0,0-.206,2.437,11.667,11.667,0,0,0,.223,2.264,7.69,7.69,0,0,0,.648,1.93,7.346,7.346,0,0,0,1.846,2.446A5.452,5.452,0,0,0,312.224,242.917Z" transform="translate(-307.396 -216.791)" fill="#401a4c"/>
                </g>
              </g>
              <path id="Path_7198" data-name="Path 7198" d="M278.452,238.039s5.1,1.963,3.643-9.956c-.466-6.464-4.463-4.984-2.165,2.07-5.474-14.355-12.706-19.2-4.474-3.082-5.275-12.808-10.912-14.68-2.733,1.479-5.346-11.615-8.018-9.92-2.616,1.1-6.008-12.99-5.517-4.8-1.517,3.74C271.94,240.543,276.976,240.266,278.452,238.039Z" transform="translate(-265.586 -167.374)" fill="#f8cba3"/>
              <g id="Group_5506" data-name="Group 5506" transform="translate(11.313 61.968)">
                <g id="Group_5505" data-name="Group 5505">
                  <path id="Path_7199" data-name="Path 7199" d="M276.341,225.673l-.6.838a12.092,12.092,0,0,0-1.072,1.849,6.277,6.277,0,0,0-.393,1.038,5.077,5.077,0,0,0-.217.964c-.1.584-.09,1.014-.111,1.016a3.237,3.237,0,0,1-.342-1.009,3.589,3.589,0,0,1-.024-1.114,4.156,4.156,0,0,1,.357-1.234,4.926,4.926,0,0,1,.683-1.071,5.42,5.42,0,0,1,.8-.753A3.5,3.5,0,0,1,276.341,225.673Z" transform="translate(-273.55 -225.673)" fill="#401a4c"/>
                </g>
              </g>
              <g id="Group_5508" data-name="Group 5508" transform="translate(3.583 58.956)">
                <g id="Group_5507" data-name="Group 5507">
                  <path id="Path_7200" data-name="Path 7200" d="M268.108,227.388a8.891,8.891,0,0,1,.928-.964A13.487,13.487,0,0,1,271.4,224.7a10.9,10.9,0,0,1,1.42-.683,7.618,7.618,0,0,1,1.334-.386,3.728,3.728,0,0,1,.984-.071c.239.02.369.043.369.043s-.132.048-.349.114a7.236,7.236,0,0,0-.871.348c-.355.145-.746.371-1.17.6s-.874.476-1.318.739l-1.325.75c-.42.246-.835.446-1.176.645C268.6,227.165,268.108,227.388,268.108,227.388Z" transform="translate(-268.108 -223.552)" fill="#401a4c"/>
                </g>
              </g>
            </g>
            <path id="Path_7201" data-name="Path 7201" d="M298.53,193.284s9.2,6.582,15.721.906c5.081,5.48,11.15,14.761,10.616,21.59,3.906-2.423-1.122-16.093-1.122-16.093s3.692,5.486,4.917,7.528c7.133-17.916-6.946-32.843-20.492-27.866-4.139-6.8-29.347,7.328-11.289,21.031C297.8,199.93,298.53,193.284,298.53,193.284Z" transform="translate(-255.137 -177.587)" fill="#5a4051"/>
            <g id="Group_5511" data-name="Group 5511" transform="translate(44.5 9.376)">
              <g id="Group_5510" data-name="Group 5510">
                <path id="Path_7202" data-name="Path 7202" d="M296.915,184.188a5.179,5.179,0,0,0,.673.393,12.3,12.3,0,0,0,1.892.753,20.812,20.812,0,0,0,2.79.682c1.03.2,2.145.352,3.264.462.557.078,1.121.1,1.673.146s1.1.075,1.628.1c1.057.064,2.048.087,2.9.111,1.7.024,2.846.071,2.846.071l-.776.125c-.5.055-1.2.2-2.057.257s-1.854.162-2.929.145c-.537,0-1.094.017-1.658-.03s-1.139-.048-1.71-.121a23.814,23.814,0,0,1-3.334-.571,16.887,16.887,0,0,1-2.8-.952,9.168,9.168,0,0,1-1.812-1.043A3.591,3.591,0,0,1,296.915,184.188Z" transform="translate(-296.915 -184.188)" fill="#401a4c"/>
              </g>
            </g>
            <g id="Group_5513" data-name="Group 5513" transform="translate(46.772 6.539)">
              <g id="Group_5512" data-name="Group 5512">
                <path id="Path_7203" data-name="Path 7203" d="M298.514,182.191a13.66,13.66,0,0,0,2.261.847c.683.226,1.511.386,2.388.577.884.161,1.827.332,2.781.43.95.131,1.91.2,2.81.266s1.746.122,2.473.139l1.76.067.672.04-.662.116c-.423.048-1.026.192-1.758.23s-1.589.132-2.51.116a24.058,24.058,0,0,1-2.882-.175,18.187,18.187,0,0,1-5.229-1.385,9.962,9.962,0,0,1-1.568-.856A4.378,4.378,0,0,1,298.514,182.191Z" transform="translate(-298.514 -182.191)" fill="#401a4c"/>
              </g>
            </g>
            <g id="Group_5515" data-name="Group 5515" transform="translate(54.149 4.571)">
              <g id="Group_5514" data-name="Group 5514">
                <path id="Path_7204" data-name="Path 7204" d="M303.708,181.472a13.469,13.469,0,0,1,2.727-.571,16.605,16.605,0,0,1,2.875-.05,13.463,13.463,0,0,1,3.261.645,11.8,11.8,0,0,1,1.557.7,7.369,7.369,0,0,1,1.381.909l.614.5.5.564a5.727,5.727,0,0,1,.837,1.087,10.314,10.314,0,0,1,.582.994c.124.318.233.6.321.825l.261.717-.4-.651-.44-.743c-.19-.271-.449-.548-.687-.874a5.311,5.311,0,0,0-.891-.946l-.52-.477-.6-.425a8.216,8.216,0,0,0-1.317-.788,11.224,11.224,0,0,0-1.46-.624c-.508-.159-1.021-.324-1.538-.433s-1.027-.226-1.533-.27a21.069,21.069,0,0,0-2.78-.2c-.818.017-1.51.01-1.99.06Z" transform="translate(-303.708 -180.806)" fill="#401a4c"/>
              </g>
            </g>
            <g id="Group_5517" data-name="Group 5517" transform="translate(64.549 12.972)">
              <g id="Group_5516" data-name="Group 5516">
                <path id="Path_7205" data-name="Path 7205" d="M311.03,186.72a6.962,6.962,0,0,1,1.845.314,10.819,10.819,0,0,1,1.8.714,9.679,9.679,0,0,1,1.842,1.266,8.237,8.237,0,0,1,1.477,1.687,8.638,8.638,0,0,1,.866,1.741,6,6,0,0,1,.341,1.318c.057.322.078.506.078.506l-.227-.46a10.223,10.223,0,0,0-.6-1.175,4.787,4.787,0,0,0-.456-.74,9.576,9.576,0,0,0-.572-.774,10.381,10.381,0,0,0-1.435-1.5,13.28,13.28,0,0,0-1.665-1.258,18.334,18.334,0,0,0-3.291-1.641Z" transform="translate(-311.03 -186.72)" fill="#401a4c"/>
              </g>
            </g>
            <g id="Group_5519" data-name="Group 5519" transform="translate(39.495 9.627)">
              <g id="Group_5518" data-name="Group 5518">
                <path id="Path_7206" data-name="Path 7206" d="M295.195,184.365a9.005,9.005,0,0,0-.464,1.193,12.856,12.856,0,0,0-.51,2.672c-.048.491-.057.987-.065,1.456.007.467-.011.913.024,1.293l.043.935c.01.229,0,.364,0,.364s-.062-.116-.156-.327a5.925,5.925,0,0,1-.337-.895,7.612,7.612,0,0,1-.314-2.9,7.092,7.092,0,0,1,.321-1.544,6.425,6.425,0,0,1,.581-1.247A3.706,3.706,0,0,1,295.195,184.365Z" transform="translate(-293.391 -184.365)" fill="#401a4c"/>
              </g>
            </g>
            <g id="Group_5521" data-name="Group 5521" transform="translate(37.549 4.242)">
              <g id="Group_5520" data-name="Group 5520">
                <path id="Path_7207" data-name="Path 7207" d="M298.571,180.574a14.482,14.482,0,0,0-1.477.805,12.879,12.879,0,0,0-1.383.963,10.3,10.3,0,0,0-1.374,1.3,8.214,8.214,0,0,0-1.1,1.53,8.663,8.663,0,0,0-.4.777,4.143,4.143,0,0,0-.294.736c-.347.928-.456,1.615-.489,1.609,0,0-.016-.17-.023-.47a5.109,5.109,0,0,1,.072-1.251,6.985,6.985,0,0,1,.5-1.723,5.423,5.423,0,0,1,.49-.9,5.991,5.991,0,0,1,.639-.844,7.847,7.847,0,0,1,1.565-1.348,8.934,8.934,0,0,1,1.6-.793A6.015,6.015,0,0,1,298.571,180.574Z" transform="translate(-292.021 -180.574)" fill="#401a4c"/>
              </g>
            </g>
            <g id="Group_5523" data-name="Group 5523" transform="translate(76.927 9.553)">
              <g id="Group_5522" data-name="Group 5522">
                <path id="Path_7208" data-name="Path 7208" d="M319.744,184.313a5.209,5.209,0,0,1,.954.206,7.693,7.693,0,0,1,2.325,1.148,6.891,6.891,0,0,1,1.288,1.2,6.4,6.4,0,0,1,1.05,1.685,8.58,8.58,0,0,1,.574,2.041,17.857,17.857,0,0,1,.139,2.146c0,1.4.024,2.8.125,4.1a19.077,19.077,0,0,0,.5,3.508,5.6,5.6,0,0,0,.516,1.285,2.017,2.017,0,0,0,.716.761,2.061,2.061,0,0,0,.9.246,1.96,1.96,0,0,1-.974-.105,2.241,2.241,0,0,1-.893-.732,4.628,4.628,0,0,1-.7-1.315,15.7,15.7,0,0,1-.766-3.585c-.138-1.327-.206-2.749-.236-4.162a17.487,17.487,0,0,0-.075-2.048,8,8,0,0,0-.476-1.879,7.686,7.686,0,0,0-.867-1.591,6.347,6.347,0,0,0-1.108-1.21,8.825,8.825,0,0,0-2.1-1.357A7.277,7.277,0,0,0,319.744,184.313Z" transform="translate(-319.744 -184.313)" fill="#401a4c"/>
              </g>
            </g>
            <g id="Group_5525" data-name="Group 5525" transform="translate(77.803 6.771)">
              <g id="Group_5524" data-name="Group 5524">
                <path id="Path_7209" data-name="Path 7209" d="M320.361,182.354a5.776,5.776,0,0,1,2.016.439,7.692,7.692,0,0,1,1.875,1.044,6.841,6.841,0,0,1,.916.807,11.93,11.93,0,0,1,.817.964c.224.359.455.716.649,1.081.175.375.345.747.482,1.115a10.506,10.506,0,0,1,.479,2.077,8.42,8.42,0,0,1,.089,1.49l-.009.563-.148-.545c-.092-.344-.18-.842-.375-1.412l-.288-.92c-.135-.315-.28-.642-.408-.987a13.1,13.1,0,0,0-1.126-1.993,10.32,10.32,0,0,0-3.148-2.876A9.339,9.339,0,0,0,320.361,182.354Z" transform="translate(-320.361 -182.354)" fill="#401a4c"/>
              </g>
            </g>
            <g id="Group_5527" data-name="Group 5527" transform="translate(78.124 19.993)">
              <g id="Group_5526" data-name="Group 5526">
                <path id="Path_7210" data-name="Path 7210" d="M321.987,191.663s-.2.7-.4,1.746a11.313,11.313,0,0,0-.219,1.777,6.723,6.723,0,0,0,0,.986,6.092,6.092,0,0,0,.132.987,4.444,4.444,0,0,0,.332.912c.08.139.152.278.222.422.087.129.2.241.29.362a3.309,3.309,0,0,0,.636.625,2.7,2.7,0,0,0,.687.453,5.52,5.52,0,0,0,.634.332l.523.2.462.2s-.179-.009-.5-.044l-.577-.071a2.752,2.752,0,0,1-.732-.206,3.146,3.146,0,0,1-.831-.379,2.921,2.921,0,0,1-.83-.632,3.137,3.137,0,0,1-.677-.906,5.036,5.036,0,0,1-.425-1.085,6.84,6.84,0,0,1-.126-1.138,5.681,5.681,0,0,1,.068-1.088,8.713,8.713,0,0,1,.489-1.832A7.7,7.7,0,0,1,321.987,191.663Z" transform="translate(-320.587 -191.663)" fill="#401a4c"/>
              </g>
            </g>
          </g>
        </g>
      </g>
      <path id="Path_7212" data-name="Path 7212" d="M323.046,342.5c-2.278-.457-4.125,1.371-4.119,4.084s1.86,5.281,4.138,5.738l25.9,5.189c2.284.457,4.13-1.37,4.125-4.083s-1.86-5.281-4.143-5.739Z" transform="translate(-210.547 15.918)" fill="#4270ed"/>
      <path id="Path_7213" data-name="Path 7213" d="M339.4,114c-2.456-.492-4.44,1.472-4.434,4.389s2,5.684,4.453,6.177,4.445-1.477,4.44-4.395S341.86,114.495,339.4,114Z" transform="translate(-213.957 -82.284)" fill="#4270ed"/>
    </g>
    <path id="Path_7214" data-name="Path 7214" d="M407.474,245.018h0c-1.81.364-3.288-1.116-3.288-3.288V165.4c0-2.172,1.479-4.247,3.288-4.611h0c1.808-.364,3.287,1.116,3.287,3.288v76.324C410.761,242.579,409.282,244.653,407.474,245.018Z" transform="translate(160.179 53.118)" fill="#4270ed"/>
    <path id="Path_7215" data-name="Path 7215" d="M407.474,255.514h0c-1.81.364-3.288-1.115-3.288-3.287V232.15c0-2.172,1.479-4.247,3.288-4.611h0c1.808-.364,3.287,1.116,3.287,3.288V250.9C410.761,253.075,409.282,255.151,407.474,255.514Z" transform="translate(160.179 81.179)" fill="#4270ed"/>
    <path id="Path_7216" data-name="Path 7216" d="M254.555,373.1l-146.75,29.434V364.068l146.75-29.434Z" transform="translate(35.578 126.225)" fill="#134de9"/>
    <g id="Group_5535" data-name="Group 5535" transform="translate(160.406 472.981)">
      <g id="Group_5532" data-name="Group 5532" transform="translate(0 9.468)">
        <ellipse id="Ellipse_467" data-name="Ellipse 467" cx="16.129" cy="12.584" rx="16.129" ry="12.584" transform="matrix(0.841, -0.541, 0.541, 0.841, 0, 17.456)" fill="#fff"/>
        <g id="Group_5542" data-name="Group 5542">
          <path id="Path_7217" data-name="Path 7217" d="M134.684,367.482c-2.634.53-4.776-.927-4.776-3.248l.91-.183c0,1.879,1.735,3.059,3.866,2.629a4.713,4.713,0,0,0,3.867-4.184l.91-.183C139.462,364.633,137.319,366.953,134.684,367.482Z" transform="translate(-114.312 -344.259)" fill="#134de9"/>
          <path id="Path_7218" data-name="Path 7218" d="M134.421,366.347h0a1.892,1.892,0,0,1-2.5-1.7v-6.214a3.054,3.054,0,0,1,2.5-2.707h0a1.893,1.893,0,0,1,2.5,1.7v6.214A3.056,3.056,0,0,1,134.421,366.347Z" transform="translate(-114.049 -345.128)" fill="#134de9"/>
          <path id="Path_7219" data-name="Path 7219" d="M134.64,371.66l-.91.183v-5.211l.91-.183Z" transform="translate(-113.812 -343.718)" fill="#134de9"/>
        </g>
      </g>
      <g id="Group_5533" data-name="Group 5533" transform="translate(37.442 1.939)">
        <ellipse id="Ellipse_468" data-name="Ellipse 468" cx="16.129" cy="12.584" rx="16.129" ry="12.584" transform="matrix(0.841, -0.541, 0.541, 0.841, 0, 17.455)" fill="#ff7536"/>
        <path id="Path_7220" data-name="Path 7220" d="M168.854,358.064a3.988,3.988,0,0,0-4.986-3.769l-8.079,1.624a6.5,6.5,0,0,0-4.986,5.775l4.48-.9c0-1.216,1.13-2.061,2.511-2.338l4.069-.818c1.38-.278,2.511.112,2.511,1.329Z" transform="translate(-140.366 -338.88)" fill="#fff"/>
      </g>
      <g id="Group_5534" data-name="Group 5534" transform="translate(80.081)">
        <path id="Path_7221" data-name="Path 7221" d="M206.521,353.835c0,7.386-6.794,14.74-15.176,16.426s-15.177-2.936-15.177-10.322,6.794-14.74,15.177-16.424S206.521,346.449,206.521,353.835Z" transform="translate(-176.168 -343.168)" fill="#fff"/>
        <path id="Path_7222" data-name="Path 7222" d="M188.964,357.535l-6.235,1.253a1.233,1.233,0,0,1-1.633-1.111v-5.493a1.988,1.988,0,0,1,1.633-1.767l6.235-1.253a1.231,1.231,0,0,1,1.632,1.11v5.493A1.987,1.987,0,0,1,188.964,357.535Z" transform="translate(-172.638 -339.887)" fill="#134de9"/>
        <path id="Path_7223" data-name="Path 7223" d="M194.792,356.254l-4.75-1.661v-3.139l4.75-3.571Z" transform="translate(-170.895 -340.129)" fill="#134de9"/>
      </g>
    </g>
    <path id="Path_7224" data-name="Path 7224" d="M435.512,370.883,288.762,341.4V302.928l146.75,29.486Z" transform="translate(111.654 112.896)" fill="#134de9"/>
    <g id="Group_5539" data-name="Group 5539" transform="translate(417.443 422.999)">
      <g id="Group_5536" data-name="Group 5536">
        <ellipse id="Ellipse_469" data-name="Ellipse 469" cx="12.588" cy="16.124" rx="12.588" ry="16.124" transform="translate(0 21.184) rotate(-57.292)" fill="#fff"/>
        <g id="Group_5541" data-name="Group 5541" transform="translate(1.33 2.448)">
          <path id="Path_7225" data-name="Path 7225" d="M315.535,325.51c-2.575-.516-4.67-2.783-4.67-5.052l.89.178a4.6,4.6,0,0,0,3.78,4.09c2.085.418,3.781-.736,3.781-2.574l.889.178C320.205,324.6,318.111,326.026,315.535,325.51Z" transform="translate(-296.496 -304.826)" fill="#134de9"/>
          <path id="Path_7226" data-name="Path 7226" d="M315.323,324.251h0a2.986,2.986,0,0,1-2.447-2.646V315.53a1.852,1.852,0,0,1,2.447-1.665h0a2.986,2.986,0,0,1,2.447,2.646v6.075A1.852,1.852,0,0,1,315.323,324.251Z" transform="translate(-296.284 -305.528)" fill="#134de9"/>
          <path id="Path_7227" data-name="Path 7227" d="M315.577,329.865l-.89-.178v-5.1l.89.178Z" transform="translate(-296.092 -304.39)" fill="#134de9"/>
        </g>
      </g>
      <g id="Group_5537" data-name="Group 5537" transform="translate(42.634 13.091)">
        <path id="Path_7228" data-name="Path 7228" d="M361.118,333.956c0,7.386-6.8,12.011-15.177,10.332s-15.177-9.03-15.177-16.416,6.8-12.011,15.177-10.332S361.118,326.569,361.118,333.956Z" transform="translate(-330.764 -317.196)" fill="#ff7536"/>
        <path id="Path_7229" data-name="Path 7229" d="M350.422,330.41a6.714,6.714,0,0,0-5.155-5.967l-8.353-1.674a4.126,4.126,0,0,0-5.155,3.9l4.633.929c0-1.258,1.168-1.662,2.6-1.377l4.206.844c1.428.286,2.6,1.158,2.6,2.416Z" transform="translate(-326.825 -313.434)" fill="#fff"/>
      </g>
      <g id="Group_5538" data-name="Group 5538" transform="translate(74.884 15.008)">
        <ellipse id="Ellipse_470" data-name="Ellipse 470" cx="12.588" cy="16.124" rx="12.588" ry="16.124" transform="matrix(0.54, -0.841, 0.841, 0.54, 0, 21.184)" fill="#fff"/>
        <path id="Path_7230" data-name="Path 7230" d="M369.811,337.245l-6.149-1.232a1.958,1.958,0,0,1-1.609-1.741v-5.417a1.216,1.216,0,0,1,1.609-1.1l6.149,1.232a1.958,1.958,0,0,1,1.609,1.741v5.417A1.216,1.216,0,0,1,369.811,337.245Z" transform="translate(-348.295 -313.555)" fill="#134de9"/>
        <path id="Path_7231" data-name="Path 7231" d="M375.682,338.323,371,334.805v-3.1l4.684-1.641Z" transform="translate(-346.701 -313.137)" fill="#134de9"/>
      </g>
    </g>
    <path id="Path_7232" data-name="Path 7232" d="M223.367,106.065h61.908s1.814-11.657-12.691-6.994-3.109-15.284-15.284-10.1-6.736-5.959-13.728-4.663S223.367,88.709,223.367,106.065Z" transform="translate(84.162 20.941)" fill="#fff"/>
    <path id="Path_7233" data-name="Path 7233" d="M145.514,125.214h87.533s-6.471-16.349-20.435-8.174-13.284-19.754-31.5-13.623S166.29,91.5,151.644,99.329,131.891,125.214,145.514,125.214Z" transform="translate(48.091 26.458)" fill="#fff"/>
  </g>
</svg>
